<svg id="Capa_1" enable-background="new 0 0 512 512" height="512" viewBox="0 0 512 512" width="512" xmlns="http://www.w3.org/2000/svg"><g><path d="m256 24.899-196 171v316.101h61l30-30h105 105l30 30h61v-316.101z" fill="#ffb64c"/><path d="m391 512h61v-316.101l-196-171v457.101h105z" fill="#ff9100"/><path d="m121 180h60v30h-60z" fill="#766e6e"/><path d="m331 180h60v30h-60z" fill="#5b5555"/><path d="m256 0-256 223.271 19.746 22.588 236.254-205.986 236.254 206.001 19.746-22.588z" fill="#766e6e"/><path d="m512 223.286-256-223.286v39.873l236.254 206.001z" fill="#5b5555"/><path d="m256 180h-30v30h30 30v-30z" fill="#766e6e"/><path d="m256 180h30v30h-30z" fill="#5b5555"/><g><path d="m361 421h-105-105l-30 30v61h135 135v-61z" fill="#5b5555"/><path d="m391 451-30-30h-105v91h135z" fill="#463f3f"/></g><path d="m361 361h-105-105l-30 30v60h135 135v-60z" fill="#766e6e"/><path d="m391 391-30-30h-105v90h135z" fill="#5b5555"/><path d="m361 301h-105-105l-30 30v60h135 135v-60z" fill="#5b5555"/><path d="m391 331-30-30h-105v90h135z" fill="#463f3f"/><path d="m256 270h-135v61h135 135v-61z" fill="#766e6e"/><path d="m256 270h135v61h-135z" fill="#5b5555"/></g></svg>